<svg width="325" height="79" viewBox="0 0 325 79" fill="none" xmlns="http://www.w3.org/2000/svg">
<path d="M115.675 35.0287H101.016C99.9263 35.0287 98.8814 34.5959 98.1109 33.8254C97.3405 33.055 96.9076 32.01 96.9076 30.9204V16.2426C96.9067 15.5242 96.6206 14.8355 96.1122 14.3278C95.6038 13.8201 94.9147 13.5349 94.1962 13.5349H78.1365C77.418 13.5349 76.7289 13.8201 76.2205 14.3278C75.7121 14.8355 75.426 15.5242 75.425 16.2426V32.3285C75.425 33.0476 75.7107 33.7373 76.2192 34.2458C76.7277 34.7543 77.4174 35.0399 78.1365 35.0399H92.8517C93.9354 35.0488 94.9717 35.4855 95.7349 36.255C96.4981 37.0245 96.9264 38.0644 96.9263 39.1482V53.9679C96.9263 54.696 97.2155 55.3942 97.7303 55.909C98.2451 56.4238 98.9434 56.713 99.6714 56.713H115.686C116.414 56.712 117.111 56.4224 117.625 55.9077C118.139 55.393 118.428 54.6953 118.428 53.9679V37.7738C118.428 37.4127 118.356 37.0551 118.218 36.7216C118.08 36.388 117.877 36.0851 117.621 35.8301C117.365 35.5751 117.062 35.373 116.728 35.2355C116.394 35.098 116.036 35.0277 115.675 35.0287V35.0287Z" fill="url(#paint0_linear_1356_8434)"/>
<path d="M163.966 54.5431C163.966 57.989 162.541 60.7179 159.69 62.7298C156.839 64.7416 153.038 65.7462 148.287 65.7437C144.802 65.7437 141.918 65.4574 139.638 64.8847C137.445 64.3373 135.317 63.5586 133.288 62.5617V59.0024C137.023 61.4549 141.973 62.6812 148.138 62.6812C152.179 62.6812 155.283 61.9081 157.449 60.3619C159.615 58.8157 160.698 56.8711 160.698 54.5281C160.71 53.7201 160.552 52.9186 160.235 52.1752C159.905 51.4446 159.404 50.8041 158.775 50.3078C158.148 49.79 157.477 49.3288 156.769 48.9296C155.904 48.4787 154.994 48.1182 154.054 47.854C152.934 47.5104 151.944 47.2415 151.137 47.0398C150.33 46.8382 149.27 46.5991 147.94 46.3116C142.921 45.206 139.301 43.9026 137.083 42.4012C134.865 40.8998 133.754 38.7237 133.752 35.8728C133.752 32.387 135.072 29.6693 137.714 27.7197C140.356 25.7701 144.107 24.7978 148.967 24.8028C151.2 24.7977 153.426 25.0344 155.608 25.5087C157.178 25.8152 158.719 26.2588 160.213 26.8345C161.042 27.1871 161.846 27.5977 162.618 28.0633V31.3424C158.793 29.0244 154.286 27.8641 149.094 27.8616C145.185 27.8616 142.197 28.5525 140.131 29.9344C138.064 31.3163 137.031 33.2995 137.031 35.884C137.031 38.2045 138.445 39.9835 141.273 41.221C142.623 41.7962 144.988 42.4697 148.37 43.2415C149.031 43.3947 149.527 43.5179 149.864 43.615C155.035 44.8301 158.681 46.1995 160.803 47.7233C162.924 49.2471 163.979 51.5204 163.966 54.5431Z" fill="#253948"/>
<path d="M184.115 25.0792C185.019 25.0792 185.908 25.1178 186.782 25.195C187.813 25.2981 188.837 25.464 189.848 25.6917C190.961 25.9262 192.049 26.2651 193.098 26.7038C194.164 27.1671 195.168 27.7632 196.085 28.4779C197.072 29.2163 197.943 30.0974 198.67 31.0922C199.456 32.2302 200.045 33.493 200.41 34.827C200.867 36.444 201.089 38.118 201.071 39.7981V64.2237H199.017L197.897 60.9109C195.38 64.1154 190.961 65.7164 184.642 65.7139C182.422 65.7609 180.205 65.5135 178.05 64.9781C176.423 64.5818 174.88 63.8975 173.494 62.9576C172.379 62.1581 171.438 61.1419 170.726 59.9697C170.062 58.9074 169.576 57.7445 169.284 56.5262C168.777 54.1214 168.777 51.637 169.284 49.2322C169.574 48.018 170.061 46.8597 170.726 45.8036C171.438 44.6374 172.379 43.6284 173.494 42.8382C174.882 41.9064 176.425 41.2274 178.05 40.8326C180.204 40.2816 182.422 40.0191 184.646 40.052C190.87 40.052 195.245 41.5659 197.77 44.5935V39.9549C197.787 38.592 197.597 37.2345 197.206 35.9288C196.891 34.8529 196.404 33.835 195.764 32.9148C195.169 32.0988 194.448 31.3827 193.628 30.7934C192.859 30.2244 192.024 29.7515 191.141 29.3854C190.278 29.0396 189.385 28.7733 188.474 28.5899C187.643 28.4101 186.801 28.2854 185.953 28.2164C185.236 28.1592 184.513 28.1305 183.783 28.1305C179.763 28.13 175.784 28.9418 172.086 30.5171V27.4022C175.542 25.8535 179.551 25.0792 184.115 25.0792ZM185.008 62.6289C186.564 62.6457 188.117 62.5207 189.65 62.2554C190.839 62.0581 191.99 61.6803 193.064 61.135C193.903 60.6948 194.683 60.1488 195.383 59.5104C196.006 58.9401 196.502 58.2454 196.84 57.4712C197.159 56.7527 197.399 56.0012 197.553 55.2303C197.704 54.4438 197.776 53.6444 197.77 52.8437C197.777 51.8807 197.677 50.9199 197.471 49.9791C197.247 49.0473 196.86 48.1623 196.328 47.3648C195.754 46.4794 194.996 45.7279 194.106 45.1612C192.964 44.4728 191.716 43.9793 190.412 43.7009C188.639 43.3015 186.825 43.1122 185.008 43.137C183.235 43.1125 181.466 43.3082 179.742 43.7196C178.446 44.0093 177.207 44.5142 176.078 45.2135C175.191 45.7964 174.429 46.5506 173.837 47.432C173.287 48.2256 172.882 49.1109 172.642 50.0464C172.426 50.9693 172.321 51.9146 172.328 52.8624C172.322 53.8225 172.427 54.7801 172.642 55.7158C172.879 56.6581 173.284 57.55 173.837 58.3488C174.426 59.2389 175.188 60.0011 176.078 60.5897C177.209 61.2859 178.447 61.7906 179.742 62.0836C181.468 62.4805 183.237 62.6636 185.008 62.6289Z" fill="#253948"/>
<path d="M237.176 48.3134V26.5694H240.537V64.2536H238.352L237.258 59.3983C234.781 63.6311 230.395 65.7475 224.1 65.7475C213.643 65.7475 208.414 60.0693 208.414 48.713V26.5694H211.727V48.6421C211.727 58.0115 215.96 62.6962 224.425 62.6962C232.926 62.6962 237.176 57.9019 237.176 48.3134ZM229.183 16.1605H232.761L225.919 22.5096H222.804L229.183 16.1605Z" fill="#253948"/>
<path d="M280.466 12.4555V32.0296C280.466 32.0943 280.444 32.157 280.405 32.2083C280.366 32.2596 280.311 32.2966 280.248 32.3135C280.186 32.3305 280.12 32.3265 280.06 32.3022C280 32.2779 279.95 32.2347 279.917 32.179C277.034 27.5255 272.31 25.1974 265.747 25.1949C262.63 25.1949 259.925 25.7191 257.631 26.7673C255.465 27.7162 253.603 29.2468 252.253 31.1893C250.933 33.1324 249.969 35.295 249.407 37.5758C248.78 40.1663 248.478 42.8247 248.507 45.4899C248.493 47.6405 248.673 49.788 249.045 51.9063C249.39 53.8343 249.995 55.7065 250.845 57.4711C251.636 59.1322 252.729 60.6317 254.068 61.8931C255.497 63.1724 257.172 64.146 258.991 64.754C261.155 65.4882 263.428 65.8469 265.713 65.8147C272.844 65.8147 277.773 63.0995 280.5 57.6691L281.71 64.3245H283.738V12.4555H280.466ZM265.967 62.6625C256.274 62.6625 251.429 56.9097 251.432 45.404C251.432 33.9506 256.277 28.2239 265.967 28.2239C275.658 28.2239 280.503 33.9506 280.503 45.404C280.503 56.9122 275.658 62.665 265.967 62.6625Z" fill="#253948"/>
<path d="M324.738 45.5273V46.9539H292.791C292.838 48.6658 293.05 50.3692 293.422 52.0408C293.776 53.5513 294.346 55.0029 295.114 56.3507C295.855 57.6722 296.859 58.8276 298.064 59.7457C299.431 60.7373 300.97 61.4679 302.602 61.9006C304.665 62.4607 306.796 62.7285 308.933 62.6962C314.258 62.6962 318.966 61.7898 323.054 59.9772V63.2937C320.777 64.0828 318.452 64.7241 316.092 65.2134C313.617 65.615 311.111 65.7925 308.604 65.7438C306.017 65.7858 303.44 65.428 300.963 64.6831C298.966 64.0962 297.107 63.1159 295.495 61.7998C294.044 60.5545 292.845 59.0419 291.965 57.3442C291.042 55.6001 290.382 53.7285 290.008 51.7905C289.619 49.6818 289.43 47.5409 289.444 45.3965C289.415 42.7271 289.727 40.0649 290.374 37.475C290.958 35.1832 291.951 33.0157 293.306 31.0773C294.708 29.1261 296.617 27.5956 298.826 26.6515C301.167 25.6058 303.95 25.0817 307.177 25.0792C309.629 25.0337 312.073 25.3752 314.419 26.0913C316.275 26.6495 317.995 27.5854 319.472 28.8401C320.82 30.0649 321.892 31.562 322.617 33.2323C323.418 35.0171 323.976 36.9013 324.275 38.8345C324.602 41.0501 324.757 43.2877 324.738 45.5273ZM307.106 28.0633C305.249 28.0351 303.401 28.3205 301.639 28.9074C300.162 29.3923 298.797 30.1696 297.627 31.1931C296.539 32.1922 295.637 33.3756 294.961 34.6888C294.247 36.0494 293.717 37.4987 293.385 38.9988C293.042 40.6127 292.843 42.2537 292.791 43.9026H321.493C321.493 33.3456 316.697 28.0658 307.106 28.0633Z" fill="#253948"/>
<path d="M47.1116 62.0426V76.1527C47.1116 76.6994 46.8944 77.2238 46.5077 77.6104C46.1211 77.9971 45.5967 78.2143 45.0499 78.2143H32.7886C19.4217 78.2143 11.2985 70.0425 11.2985 56.6122V33.8074H0.239749V30.2444C0.238624 29.412 0.555212 28.6105 1.1249 28.0035L26.3535 1.13535C26.6591 0.810989 27.0278 0.552555 27.4369 0.375929C27.846 0.199303 28.287 0.108219 28.7326 0.108276H31.6121V17.7776H44.6204C45.1969 17.7776 45.7498 18.0067 46.1575 18.4143C46.5651 18.8219 46.7941 19.3748 46.7941 19.9513V31.6375C46.7941 32.214 46.5651 32.7669 46.1575 33.1745C45.7498 33.5822 45.1969 33.8112 44.6204 33.8112H32.1163V53.0267C32.1163 57.3554 34.7307 59.966 39.1228 59.966H45.0574C45.3288 59.967 45.5973 60.0215 45.8475 60.1265C46.0978 60.2315 46.3248 60.3848 46.5157 60.5778C46.7065 60.7707 46.8574 60.9994 46.9596 61.2508C47.0619 61.5021 47.1135 61.7712 47.1116 62.0426Z" fill="#253948"/>
<path d="M94.1701 56.713H79.5147C78.4251 56.713 77.3802 56.2802 76.6097 55.5097C75.8393 54.7393 75.4064 53.6943 75.4064 52.6047V37.7402C75.4064 37.0211 75.1208 36.3314 74.6123 35.8229C74.1038 35.3144 73.4141 35.0287 72.695 35.0287H56.6353C55.9162 35.0287 55.2265 35.3144 54.718 35.8229C54.2095 36.3314 53.9238 37.0211 53.9238 37.7402V54.0053C53.9238 54.7244 54.2095 55.4141 54.718 55.9226C55.2265 56.4311 55.9162 56.7167 56.6353 56.7167H71.3542C72.4379 56.7256 73.4743 57.1623 74.2375 57.9318C75.0007 58.7013 75.4289 59.7412 75.4288 60.825V75.4617C75.4288 76.1891 75.7175 76.8868 76.2315 77.4015C76.7455 77.9162 77.4428 78.2058 78.1702 78.2068H94.1701C94.8981 78.2068 95.5964 77.9176 96.1112 77.4028C96.626 76.888 96.9152 76.1898 96.9152 75.4617V59.4543C96.9142 58.7269 96.6245 58.0297 96.1098 57.5157C95.5951 57.0017 94.8975 56.713 94.1701 56.713Z" fill="#6749ED"/>
<defs>
<linearGradient id="paint0_linear_1356_8434" x1="122.588" y1="60.2984" x2="77.8751" y2="16.4294" gradientUnits="userSpaceOnUse">
<stop offset="0.1" stop-color="#B7E8F6"/>
<stop offset="1" stop-color="#6749ED"/>
</linearGradient>
</defs>
</svg>
